# xmcd
#
# Track frame offsets: 
#        150
#        12914
#        30540
#        46443
#        62386
#        70508
#        88817
#        109355
#        127933
#        144717
#        160571
#        175875
#        190352
#
# Disc length: 2761 seconds
#
# Revision: 0
# Processed by: cddbd v1.5.2PL0 Copyright (c) Steve Scherf et al.
# Submitted via: ExactAudioCopy v0.99pb5
#
DISCID=a90ac70d
DTITLE=The Boy Least Likely To - The Law Of The Playground
DYEAR=2009
DGENRE=Pop
TTITLE0=Saddle Up
TTITLE1=A Balloon On A Broken String
TTITLE2=I Box Up All The Butterflies
TTITLE3=The Boy With Two Hearts
TTITLE4=Stringing Up Conkers
TTITLE5=The Boy Least Likely To Is A Machine
TTITLE6=Whiskers
TTITLE7=Every Goliath Has Its David
TTITLE8=When Life Gives Me Lemons I Make Lemonade
TTITLE9=The Nature Of The Boy Least Likely To
TTITLE10=I Keep Myself To Myself
TTITLE11=The Worm Forgives The Plough
TTITLE12=A Fairytale Ending
EXTD=
EXTT0=
EXTT1=
EXTT2=
EXTT3=
EXTT4=
EXTT5=
EXTT6=
EXTT7=
EXTT8=
EXTT9=
EXTT10=
EXTT11=
EXTT12=
PLAYORDER=
